<svg xmlns="http://www.w3.org/2000/svg" viewBox="0 0 34 30" fill="none">
  <path d="M16.0823 6.32896C16.351 6.33207 16.8226 6.37461 16.8226 6.37461H16.8392C19.4294 6.53958 24.7115 8.34074 25.252 14.2479C25.3424 16.2332 24.7663 18.1917 23.6153 19.8117L16.1565 12.825L16.1876 21.7638L17.4918 22.9954C17.2736 23.0161 17.0488 23.0317 16.8174 23.0421C15.0567 23.2843 10.8931 22.7132 8.31947 18.4883V27.3748C10.6451 28.8035 16.5933 30.7593 22.8719 28.0793L24.3826 29.5054L33.9922 29.535L28.3138 24.2135C30.5871 21.7962 31.9149 18.6418 32.0546 15.3265C32.1521 10.269 29.3622 1.01626 16.8381 0.0228258H16.82C16.82 0.0228258 16.598 0.0150442 16.462 0.0124504L16.0429 0L15.161 0.0197132H15.1355H15.0837C10.3525 0.127098 0.830546 3.14788 0.000518482 14.4637V29.4141H6.75279V14.4637C6.79792 12.0484 8.53891 7.04901 15.1407 6.35697L15.467 6.33726C15.467 6.33726 15.8115 6.32896 16.0823 6.32896Z" fill="#004D43"/>
  <path d="M16.1881 21.7633L16.157 12.8244L33.9943 29.5345L24.3846 29.5049L16.1881 21.7633Z" fill="#27EAA6"/>
</svg>
